<svg xmlns="http://www.w3.org/2000/svg" xmlns:xlink="http://www.w3.org/1999/xlink" contentStyleType="text/css" data-diagram-type="DESCRIPTION" height="324px" preserveAspectRatio="none" style="width:392px;height:324px;background:#FFFFFF;" version="1.1" viewBox="0 0 392 324" width="392px" zoomAndPan="magnify"><?plantuml 1.2026.6?><defs/><g><!--cluster Broker Module--><g class="cluster" data-qualified-name="Broker Module" data-source-line="7" id="ent0003"><rect fill="none" height="301" rx="2.5" ry="2.5" style="stroke:#181818;stroke-width:1;" width="202.16" x="176.62" y="7"/><text fill="#000000" font-family="sans-serif" font-size="14" font-weight="700" lengthAdjust="spacing" textLength="115.6094" x="219.8953" y="21.9951">Broker Module</text></g><!--entity UC1--><g class="entity" data-qualified-name="Broker Module.UC1" data-source-line="8" id="ent0004"><ellipse cx="277.6999" cy="60.996" fill="#F1F1F1" rx="85.0799" ry="19.416" style="stroke:#181818;stroke-width:0.5;"/><text fill="#000000" font-family="sans-serif" font-size="14" lengthAdjust="spacing" textLength="142.5088" x="206.4455" y="65.6444">Register new Broker</text></g><!--entity UC2--><g class="entity" data-qualified-name="Broker Module.UC2" data-source-line="9" id="ent0005"><ellipse cx="277.701" cy="200.9982" fill="#F1F1F1" rx="78.391" ry="18.0782" style="stroke:#181818;stroke-width:0.5;"/><text fill="#000000" font-family="sans-serif" font-size="14" lengthAdjust="spacing" textLength="126.8682" x="214.267" y="205.6466">Deactivate Broker</text></g><!--entity UC3--><g class="entity" data-qualified-name="Broker Module.UC3" data-source-line="10" id="ent0006"><ellipse cx="277.7033" cy="273.0007" fill="#F1F1F1" rx="80.9533" ry="18.5907" style="stroke:#181818;stroke-width:0.5;"/><text fill="#000000" font-family="sans-serif" font-size="14" lengthAdjust="spacing" textLength="132.918" x="211.2444" y="277.6491">View Broker Profile</text></g><!--entity UC4--><g class="entity" data-qualified-name="Broker Module.UC4" data-source-line="11" id="ent0007"><ellipse cx="277.695" cy="131.997" fill="#F1F1F1" rx="68.835" ry="16.167" style="stroke:#181818;stroke-width:0.5;"/><text fill="#000000" font-family="sans-serif" font-size="14" lengthAdjust="spacing" textLength="103.4277" x="225.9812" y="136.6454">List all Brokers</text></g><!--entity Admin--><g class="entity" data-qualified-name="Admin" data-source-line="4" id="ent0001"><ellipse cx="69.3113" cy="117.35" fill="#F1F1F1" rx="8" ry="8" style="stroke:#181818;stroke-width:0.5;"/><path d="M69.3113,125.35 L69.3113,152.35 M56.3113,133.35 L82.3113,133.35 M69.3113,152.35 L56.3113,167.35 M69.3113,152.35 L82.3113,167.35" fill="none" style="stroke:#181818;stroke-width:0.5;"/><text fill="#000000" font-family="sans-serif" font-size="14" lengthAdjust="spacing" textLength="95.6826" x="21.47" y="181.8451">Administrator</text></g><!--entity Broker--><g class="entity" data-qualified-name="Broker" data-source-line="5" id="ent0002"><ellipse cx="69.311" cy="243.35" fill="#F1F1F1" rx="8" ry="8" style="stroke:#181818;stroke-width:0.5;"/><path d="M69.311,251.35 L69.311,278.35 M56.311,259.35 L82.311,259.35 M69.311,278.35 L56.311,293.35 M69.311,278.35 L82.311,293.35" fill="none" style="stroke:#181818;stroke-width:0.5;"/><text fill="#000000" font-family="sans-serif" font-size="14" lengthAdjust="spacing" textLength="126.6221" x="6" y="307.8451">Registered Broker</text></g><!--link Admin to UC1--><g class="link" data-entity-1="ent0001" data-entity-2="ent0004" data-link-type="dependency" data-source-line="14" id="lnk8"><path d="M117.22,122.03 C133.31,113.9 151.56,105.14 168.62,98 C187.1,90.27 203.0768,84.4619 221.3968,78.3519" fill="none" id="Admin-to-UC1" style="stroke:#181818;stroke-width:1;"/><polygon fill="#181818" points="226.14,76.77,216.3368,75.8229,221.3968,78.3519,218.8678,83.412,226.14,76.77" style="stroke:#181818;stroke-width:1;stroke-linejoin:miter;stroke-miterlimit:10;"/></g><!--link Admin to UC2--><g class="link" data-entity-1="ent0001" data-entity-2="ent0005" data-link-type="dependency" data-source-line="15" id="lnk9"><path d="M117.4,159.32 C149.41,167.69 186.9128,177.5046 219.9028,186.1346" fill="none" id="Admin-to-UC2" style="stroke:#181818;stroke-width:1;"/><polygon fill="#181818" points="224.74,187.4,217.0453,181.2525,219.9028,186.1346,215.0207,188.9921,224.74,187.4" style="stroke:#181818;stroke-width:1;stroke-linejoin:miter;stroke-miterlimit:10;"/></g><!--link Admin to UC4--><g class="link" data-entity-1="ent0001" data-entity-2="ent0007" data-link-type="dependency" data-source-line="16" id="lnk10"><path d="M117.4,143.58 C145.24,141.55 175.9232,139.3227 206.4432,137.1027" fill="none" id="Admin-to-UC4" style="stroke:#181818;stroke-width:1;"/><polygon fill="#181818" points="211.43,136.74,202.1635,133.4035,206.4432,137.1027,202.7439,141.3824,211.43,136.74" style="stroke:#181818;stroke-width:1;stroke-linejoin:miter;stroke-miterlimit:10;"/></g><!--link Admin to UC3--><g class="link" data-entity-1="ent0001" data-entity-2="ent0006" data-link-type="dependency" data-source-line="17" id="lnk11"><path d="M104.69,185.2 C122.36,202.96 145.08,223.16 168.62,237 C184.73,246.47 198.9134,252.3502 216.4034,257.8902" fill="none" id="Admin-to-UC3" style="stroke:#181818;stroke-width:1;"/><polygon fill="#181818" points="221.17,259.4,213.798,252.869,216.4034,257.8902,211.3823,260.4956,221.17,259.4" style="stroke:#181818;stroke-width:1;stroke-linejoin:miter;stroke-miterlimit:10;"/></g><!--link Broker to UC3--><g class="link" data-entity-1="ent0002" data-entity-2="ent0006" data-link-type="dependency" data-source-line="19" id="lnk12"><path d="M133.08,273 C153,273 170.31,273 191.3,273" fill="none" id="Broker-to-UC3" style="stroke:#181818;stroke-width:1;"/><polygon fill="#181818" points="196.3,273,187.3,269,191.3,273,187.3,277,196.3,273" style="stroke:#181818;stroke-width:1;stroke-linejoin:miter;stroke-miterlimit:10;"/></g><?plantuml-src LOyx3y8m38Ht_ufJTmOUCnAF4IG4WjrgJR4Q4fG444ByTqfR8Drylaztjf5ZH7JmMfuY2lMIHtMMGgNsmfxFk71USIcx-322ZyssD4B4UNGUsQmugzKGFTSo0mSqcw-zbR8snKk1kNULj4Wx4ltYaBKhh5rnDPBXIS0rICv1_Y6mSazZzejXYYsbBjKRH-b3enGww2y36--E-cbhi76AhUf2i34T6ZfcGY-Yva4C1jFcW5IDUchIKsEYhhRJRm00?></g></svg>