<svg xmlns="http://www.w3.org/2000/svg" xmlns:xlink="http://www.w3.org/1999/xlink" contentStyleType="text/css" data-diagram-type="DESCRIPTION" height="617px" preserveAspectRatio="none" style="width:451px;height:617px;background:#FFFFFF;" version="1.1" viewBox="0 0 451 617" width="451px" zoomAndPan="magnify"><?plantuml 1.2026.6?><defs/><g><!--cluster Auth Module--><g class="cluster" data-qualified-name="Auth Module" data-source-line="8" id="ent0004"><rect fill="none" height="596" rx="2.5" ry="2.5" style="stroke:#181818;stroke-width:1;" width="252.14" x="185.3" y="7"/><text fill="#000000" font-family="sans-serif" font-size="14" font-weight="700" lengthAdjust="spacing" textLength="100.167" x="261.2865" y="21.9951">Auth Module</text></g><!--entity UC1--><g class="entity" data-qualified-name="Auth Module.UC1" data-source-line="9" id="ent0005"><ellipse cx="311.3654" cy="124.0031" fill="#F1F1F1" rx="75.3154" ry="17.4631" style="stroke:#181818;stroke-width:0.5;"/><text fill="#000000" font-family="sans-serif" font-size="14" lengthAdjust="spacing" textLength="119.4922" x="251.6193" y="128.6515">Register Account</text></g><!--entity UC2--><g class="entity" data-qualified-name="Auth Module.UC2" data-source-line="10" id="ent0006"><ellipse cx="311.3704" cy="57.0036" fill="#F1F1F1" rx="29.8804" ry="14.5236" style="stroke:#181818;stroke-width:0.5;"/><text fill="#000000" font-family="sans-serif" font-size="14" lengthAdjust="spacing" textLength="38.0146" x="292.3631" y="61.6521">Login</text></g><!--entity UC3--><g class="entity" data-qualified-name="Auth Module.UC3" data-source-line="11" id="ent0007"><ellipse cx="311.3715" cy="272.0043" fill="#F1F1F1" rx="77.3215" ry="17.8643" style="stroke:#181818;stroke-width:0.5;"/><text fill="#000000" font-family="sans-serif" font-size="14" lengthAdjust="spacing" textLength="124.3184" x="249.2123" y="276.6527">Change Password</text></g><!--entity UC4--><g class="entity" data-qualified-name="Auth Module.UC4" data-source-line="12" id="ent0008"><ellipse cx="311.3682" cy="339.0036" fill="#F1F1F1" rx="37.0682" ry="14.5236" style="stroke:#181818;stroke-width:0.5;"/><text fill="#000000" font-family="sans-serif" font-size="14" lengthAdjust="spacing" textLength="48.1797" x="287.2783" y="343.6521">Logout</text></g><!--entity UC5--><g class="entity" data-qualified-name="Auth Module.UC5" data-source-line="13" id="ent0009"><ellipse cx="311.3696" cy="198.0039" fill="#F1F1F1" rx="94.1696" ry="21.2339" style="stroke:#181818;stroke-width:0.5;"/><text fill="#000000" font-family="sans-serif" font-size="14" lengthAdjust="spacing" textLength="163.1191" x="229.81" y="202.6524">Select Platform Service</text></g><!--entity UC6--><g class="entity" data-qualified-name="Auth Module.UC6" data-source-line="15" id="ent0010"><ellipse cx="311.3694" cy="567.9979" fill="#F1F1F1" rx="82.2394" ry="18.8479" style="stroke:#181818;stroke-width:0.5;"/><text fill="#000000" font-family="sans-serif" font-size="14" lengthAdjust="spacing" textLength="135.9258" x="243.4065" y="572.6463">Assign Role to User</text></g><!--entity UC7--><g class="entity" data-qualified-name="Auth Module.UC7" data-source-line="16" id="ent0011"><ellipse cx="311.3689" cy="493.0018" fill="#F1F1F1" rx="93.1589" ry="21.0318" style="stroke:#181818;stroke-width:0.5;"/><text fill="#000000" font-family="sans-serif" font-size="14" lengthAdjust="spacing" textLength="160.8564" x="230.9407" y="497.6502">Revoke Role from User</text></g><!--entity UC8--><g class="entity" data-qualified-name="Auth Module.UC8" data-source-line="17" id="ent0012"><ellipse cx="311.3697" cy="413.0039" fill="#F1F1F1" rx="110.0697" ry="24.4139" style="stroke:#181818;stroke-width:0.5;"/><text fill="#000000" font-family="sans-serif" font-size="14" lengthAdjust="spacing" textLength="198.0303" x="212.3546" y="417.6524">Create New Role/Permission</text></g><!--entity Guest--><g class="entity" data-qualified-name="Guest" data-source-line="4" id="ent0001"><ellipse cx="73.6493" cy="61.35" fill="#F1F1F1" rx="8" ry="8" style="stroke:#181818;stroke-width:0.5;"/><path d="M73.6493,69.35 L73.6493,96.35 M60.6493,77.35 L86.6493,77.35 M73.6493,96.35 L60.6493,111.35 M73.6493,96.35 L86.6493,111.35" fill="none" style="stroke:#181818;stroke-width:0.5;"/><text fill="#000000" font-family="sans-serif" font-size="14" lengthAdjust="spacing" textLength="77.4785" x="34.91" y="125.8451">Guest User</text></g><!--entity AuthUser--><g class="entity" data-qualified-name="AuthUser" data-source-line="5" id="ent0002"><ellipse cx="73.6519" cy="242.35" fill="#F1F1F1" rx="8" ry="8" style="stroke:#181818;stroke-width:0.5;"/><path d="M73.6519,250.35 L73.6519,277.35 M60.6519,258.35 L86.6519,258.35 M73.6519,277.35 L60.6519,292.35 M73.6519,277.35 L86.6519,292.35" fill="none" style="stroke:#181818;stroke-width:0.5;"/><text fill="#000000" font-family="sans-serif" font-size="14" lengthAdjust="spacing" textLength="135.3037" x="6" y="306.8451">Authenticated User</text></g><!--entity Admin--><g class="entity" data-qualified-name="Admin" data-source-line="6" id="ent0003"><ellipse cx="73.6513" cy="423.35" fill="#F1F1F1" rx="8" ry="8" style="stroke:#181818;stroke-width:0.5;"/><path d="M73.6513,431.35 L73.6513,458.35 M60.6513,439.35 L86.6513,439.35 M73.6513,458.35 L60.6513,473.35 M73.6513,458.35 L86.6513,473.35" fill="none" style="stroke:#181818;stroke-width:0.5;"/><text fill="#000000" font-family="sans-serif" font-size="14" lengthAdjust="spacing" textLength="95.6826" x="25.81" y="487.8451">Administrator</text></g><!--link Guest to UC1--><g class="link" data-entity-1="ent0001" data-entity-2="ent0005" data-link-type="dependency" data-source-line="20" id="lnk13"><path d="M112.79,96.34 C148.75,101.37 198.4083,108.3265 241.1083,114.3065" fill="none" id="Guest-to-UC1" style="stroke:#181818;stroke-width:1;"/><polygon fill="#181818" points="246.06,115,237.7018,109.7904,241.1083,114.3065,236.5922,117.7131,246.06,115" style="stroke:#181818;stroke-width:1;stroke-linejoin:miter;stroke-miterlimit:10;"/></g><!--link Guest to UC2--><g class="link" data-entity-1="ent0001" data-entity-2="ent0006" data-link-type="dependency" data-source-line="21" id="lnk14"><path d="M112.79,85.5 C160.22,78.66 235.1212,67.854 277.3312,61.764" fill="none" id="Guest-to-UC2" style="stroke:#181818;stroke-width:1;"/><polygon fill="#181818" points="282.28,61.05,272.801,58.3762,277.3312,61.764,273.9434,66.2942,282.28,61.05" style="stroke:#181818;stroke-width:1;stroke-linejoin:miter;stroke-miterlimit:10;"/></g><!--link AuthUser to UC3--><g class="link" data-entity-1="ent0002" data-entity-2="ent0007" data-link-type="dependency" data-source-line="23" id="lnk15"><path d="M141.57,272 C170.29,272 199.01,272 228.72,272" fill="none" id="AuthUser-to-UC3" style="stroke:#181818;stroke-width:1;"/><polygon fill="#181818" points="233.72,272,224.72,268,228.72,272,224.72,276,233.72,272" style="stroke:#181818;stroke-width:1;stroke-linejoin:miter;stroke-miterlimit:10;"/></g><!--link AuthUser to UC4--><g class="link" data-entity-1="ent0002" data-entity-2="ent0008" data-link-type="dependency" data-source-line="24" id="lnk16"><path d="M141.73,295.87 C153.53,299.78 165.73,303.64 177.3,307 C211.42,316.9 246.1875,325.0722 273.2775,331.0522" fill="none" id="AuthUser-to-UC4" style="stroke:#181818;stroke-width:1;"/><polygon fill="#181818" points="278.16,332.13,270.2338,326.284,273.2775,331.0522,268.5094,334.096,278.16,332.13" style="stroke:#181818;stroke-width:1;stroke-linejoin:miter;stroke-miterlimit:10;"/></g><!--link AuthUser to UC5--><g class="link" data-entity-1="ent0002" data-entity-2="ent0009" data-link-type="dependency" data-source-line="25" id="lnk17"><path d="M141.6,248.7 C153.47,244.71 165.73,240.67 177.3,237 C201.4,229.36 223.3174,222.8211 246.4474,216.1211" fill="none" id="AuthUser-to-UC5" style="stroke:#181818;stroke-width:1;"/><polygon fill="#181818" points="251.25,214.73,241.4925,213.392,246.4474,216.1211,243.7183,221.0761,251.25,214.73" style="stroke:#181818;stroke-width:1;stroke-linejoin:miter;stroke-miterlimit:10;"/></g><!--link Admin to UC6--><g class="link" data-entity-1="ent0003" data-entity-2="ent0010" data-link-type="dependency" data-source-line="27" id="lnk18"><path d="M116.58,491.28 C134.27,505.76 155.74,521.32 177.3,532 C198.86,542.68 219.1364,549.319 241.7264,554.909" fill="none" id="Admin-to-UC6" style="stroke:#181818;stroke-width:1;"/><polygon fill="#181818" points="246.58,556.11,238.8043,550.0652,241.7264,554.909,236.8827,557.831,246.58,556.11" style="stroke:#181818;stroke-width:1;stroke-linejoin:miter;stroke-miterlimit:10;"/></g><!--link Admin to UC7--><g class="link" data-entity-1="ent0003" data-entity-2="ent0011" data-link-type="dependency" data-source-line="28" id="lnk19"><path d="M121.79,461 C154.44,466.54 193.6404,473.1937 231.0104,479.5337" fill="none" id="Admin-to-UC7" style="stroke:#181818;stroke-width:1;"/><polygon fill="#181818" points="235.94,480.37,227.7359,474.921,231.0104,479.5337,226.3977,482.8083,235.94,480.37" style="stroke:#181818;stroke-width:1;stroke-linejoin:miter;stroke-miterlimit:10;"/></g><!--link Admin to UC8--><g class="link" data-entity-1="ent0003" data-entity-2="ent0012" data-link-type="dependency" data-source-line="29" id="lnk20"><path d="M121.79,445 C150.67,440.1 183.6205,434.5067 217.8505,428.6967" fill="none" id="Admin-to-UC8" style="stroke:#181818;stroke-width:1;"/><polygon fill="#181818" points="222.78,427.86,213.2375,425.4225,217.8505,428.6967,214.5763,433.3097,222.78,427.86" style="stroke:#181818;stroke-width:1;stroke-linejoin:miter;stroke-miterlimit:10;"/></g><!--link Admin to UC4--><g class="link" data-entity-1="ent0003" data-entity-2="ent0008" data-link-type="dependency" data-source-line="30" id="lnk21"><path d="M114.25,414.59 C132.24,399.02 154.56,382.13 177.3,371 C208.57,355.7 242.6884,348.192 270.3784,343.922" fill="none" id="Admin-to-UC4" style="stroke:#181818;stroke-width:1;"/><polygon fill="#181818" points="275.32,343.16,265.8155,340.5784,270.3784,343.922,267.0348,348.4849,275.32,343.16" style="stroke:#181818;stroke-width:1;stroke-linejoin:miter;stroke-miterlimit:10;"/></g><?plantuml-src NP5BRiCm34JtEWMHVL0qSJwh0e4NtRI54SC746J64MoB0KKdA8hUlVAtTfOpyqY9P8KN0I5WMrm5Sijen99JlhJkfbdNSDEcr0McybqXjB5sHOLAQIF4i7flq0ja7da5saCdn-pKo1MTMAC5yt-cjLinONbjdVN2EiYUQ1sbfjVwLl19ULFX2duKGEFHQ1-ICnQX5XbEnb3Zf6kGnQzpveCAwuPWCm_YQ-YFa6Zl7yJvW6oVQgaPkqRp9CKgV12IIik5k8OK-MuD3kWke7FwvBqj79mfZ1CMFcqZY_VBSUvKOezTcEevU5XydJ6i5RxmqS4l2N9jmniq3dfKlqhrvrcltxgLpDL6gV4GWxDzDg9dOnTgsjCCShzGXuKwBbIa_W00?></g></svg>